<svg width="669" height="453" viewBox="0 0 669 453" fill="none" xmlns="http://www.w3.org/2000/svg">
<path d="M132.587 244.981C115.158 227.326 104.445 203.032 104.445 176.323C104.445 122.303 148.28 78.4673 202.301 78.4673C256.322 78.4673 300.232 122.227 300.232 176.248L224.86 118.907L132.587 244.981Z" fill="#FFFBF1"/>
<path d="M202.376 52.3625V62.9253" stroke="#E2DFC0" stroke-width="8" stroke-miterlimit="10" stroke-linecap="round" stroke-linejoin="round"/>
<path d="M202.376 32.7456V43.761" stroke="#E2DFC0" stroke-width="8" stroke-miterlimit="10" stroke-linecap="round" stroke-linejoin="round"/>
<path d="M202.376 8.5271V22.9377" stroke="#E2DFC0" stroke-width="8" stroke-miterlimit="10" stroke-linecap="round" stroke-linejoin="round"/>
<path d="M180.798 54.2483L182.684 64.5847" stroke="#E2DFC0" stroke-width="8" stroke-miterlimit="10" stroke-linecap="round" stroke-linejoin="round"/>
<path d="M177.403 34.9336L179.365 45.7981" stroke="#E2DFC0" stroke-width="8" stroke-miterlimit="10" stroke-linecap="round" stroke-linejoin="round"/>
<path d="M173.178 11.092L175.743 25.2763" stroke="#E2DFC0" stroke-width="8" stroke-miterlimit="10" stroke-linecap="round" stroke-linejoin="round"/>
<path d="M159.975 59.8315L163.596 69.7152" stroke="#E2DFC0" stroke-width="8" stroke-miterlimit="10" stroke-linecap="round" stroke-linejoin="round"/>
<path d="M153.26 41.4224L157.032 51.7587" stroke="#E2DFC0" stroke-width="8" stroke-miterlimit="10" stroke-linecap="round" stroke-linejoin="round"/>
<path d="M144.96 18.637L149.94 32.2176" stroke="#E2DFC0" stroke-width="8" stroke-miterlimit="10" stroke-linecap="round" stroke-linejoin="round"/>
<path d="M140.358 68.9609L145.639 78.0901" stroke="#E2DFC0" stroke-width="8" stroke-miterlimit="10" stroke-linecap="round" stroke-linejoin="round"/>
<path d="M130.625 51.9851L136.133 61.567" stroke="#E2DFC0" stroke-width="8" stroke-miterlimit="10" stroke-linecap="round" stroke-linejoin="round"/>
<path d="M118.478 31.0103L125.721 43.5346" stroke="#E2DFC0" stroke-width="8" stroke-miterlimit="10" stroke-linecap="round" stroke-linejoin="round"/>
<path d="M122.703 81.3342L129.494 89.4072" stroke="#E2DFC0" stroke-width="8" stroke-miterlimit="10" stroke-linecap="round" stroke-linejoin="round"/>
<path d="M110.103 66.3201L117.196 74.7702" stroke="#E2DFC0" stroke-width="8" stroke-miterlimit="10" stroke-linecap="round" stroke-linejoin="round"/>
<path d="M94.4857 47.76L103.841 58.8509" stroke="#E2DFC0" stroke-width="8" stroke-miterlimit="10" stroke-linecap="round" stroke-linejoin="round"/>
<path d="M107.463 96.6501L115.536 103.365" stroke="#E2DFC0" stroke-width="8" stroke-miterlimit="10" stroke-linecap="round" stroke-linejoin="round"/>
<path d="M92.4486 84.0503L100.823 91.1424" stroke="#E2DFC0" stroke-width="8" stroke-miterlimit="10" stroke-linecap="round" stroke-linejoin="round"/>
<path d="M73.8129 68.4326L84.9038 77.7127" stroke="#E2DFC0" stroke-width="8" stroke-miterlimit="10" stroke-linecap="round" stroke-linejoin="round"/>
<path d="M95.0138 114.305L104.143 119.587" stroke="#E2DFC0" stroke-width="8" stroke-miterlimit="10" stroke-linecap="round" stroke-linejoin="round"/>
<path d="M78.038 104.497L87.6199 110.005" stroke="#E2DFC0" stroke-width="8" stroke-miterlimit="10" stroke-linecap="round" stroke-linejoin="round"/>
<path d="M57.0635 92.3499L69.5878 99.5929" stroke="#E2DFC0" stroke-width="8" stroke-miterlimit="10" stroke-linecap="round" stroke-linejoin="round"/>
<path d="M85.8846 133.921L95.8438 137.467" stroke="#E2DFC0" stroke-width="8" stroke-miterlimit="10" stroke-linecap="round" stroke-linejoin="round"/>
<path d="M67.4753 127.207L77.8871 130.979" stroke="#E2DFC0" stroke-width="8" stroke-miterlimit="10" stroke-linecap="round" stroke-linejoin="round"/>
<path d="M44.69 118.908L58.2706 123.812" stroke="#E2DFC0" stroke-width="8" stroke-miterlimit="10" stroke-linecap="round" stroke-linejoin="round"/>
<path d="M80.3015 154.745L90.7133 156.556" stroke="#E2DFC0" stroke-width="8" stroke-miterlimit="10" stroke-linecap="round" stroke-linejoin="round"/>
<path d="M61.0622 151.35L71.8513 153.236" stroke="#E2DFC0" stroke-width="8" stroke-miterlimit="10" stroke-linecap="round" stroke-linejoin="round"/>
<path d="M37.1452 147.125L51.4049 149.615" stroke="#E2DFC0" stroke-width="8" stroke-miterlimit="10" stroke-linecap="round" stroke-linejoin="round"/>
<path d="M78.4153 176.248H88.978" stroke="#E2DFC0" stroke-width="8" stroke-miterlimit="10" stroke-linecap="round" stroke-linejoin="round"/>
<path d="M58.8742 176.248H69.8897" stroke="#E2DFC0" stroke-width="8" stroke-miterlimit="10" stroke-linecap="round" stroke-linejoin="round"/>
<path d="M34.58 176.248H49.066" stroke="#E2DFC0" stroke-width="8" stroke-miterlimit="10" stroke-linecap="round" stroke-linejoin="round"/>
<path d="M80.3015 197.75L90.7133 195.94" stroke="#E2DFC0" stroke-width="8" stroke-miterlimit="10" stroke-linecap="round" stroke-linejoin="round"/>
<path d="M61.0622 201.146L71.8513 199.26" stroke="#E2DFC0" stroke-width="8" stroke-miterlimit="10" stroke-linecap="round" stroke-linejoin="round"/>
<path d="M37.1452 205.371L51.4049 202.881" stroke="#E2DFC0" stroke-width="8" stroke-miterlimit="10" stroke-linecap="round" stroke-linejoin="round"/>
<path d="M85.8846 218.65L95.8438 215.028" stroke="#E2DFC0" stroke-width="8" stroke-miterlimit="10" stroke-linecap="round" stroke-linejoin="round"/>
<path d="M67.4753 225.364L77.8871 221.592" stroke="#E2DFC0" stroke-width="8" stroke-miterlimit="10" stroke-linecap="round" stroke-linejoin="round"/>
<path d="M44.69 233.664L58.2706 228.684" stroke="#E2DFC0" stroke-width="8" stroke-miterlimit="10" stroke-linecap="round" stroke-linejoin="round"/>
<path d="M95.0138 238.191L104.143 232.909" stroke="#E2DFC0" stroke-width="8" stroke-miterlimit="10" stroke-linecap="round" stroke-linejoin="round"/>
<path d="M78.038 247.999L87.6199 242.491" stroke="#E2DFC0" stroke-width="8" stroke-miterlimit="10" stroke-linecap="round" stroke-linejoin="round"/>
<path d="M57.0635 260.146L69.5878 252.903" stroke="#E2DFC0" stroke-width="8" stroke-miterlimit="10" stroke-linecap="round" stroke-linejoin="round"/>
<path d="M318.793 133.921L308.834 137.467" stroke="#E2DFC0" stroke-width="8" stroke-miterlimit="10" stroke-linecap="round" stroke-linejoin="round"/>
<path d="M337.202 127.207L326.79 130.979" stroke="#E2DFC0" stroke-width="8" stroke-miterlimit="10" stroke-linecap="round" stroke-linejoin="round"/>
<path d="M309.663 114.305L300.534 119.587" stroke="#E2DFC0" stroke-width="8" stroke-miterlimit="10" stroke-linecap="round" stroke-linejoin="round"/>
<path d="M326.639 104.497L317.057 110.005" stroke="#E2DFC0" stroke-width="8" stroke-miterlimit="10" stroke-linecap="round" stroke-linejoin="round"/>
<path d="M347.614 92.3499L335.089 99.5929" stroke="#E2DFC0" stroke-width="8" stroke-miterlimit="10" stroke-linecap="round" stroke-linejoin="round"/>
<path d="M297.215 96.6501L289.217 103.365" stroke="#E2DFC0" stroke-width="8" stroke-miterlimit="10" stroke-linecap="round" stroke-linejoin="round"/>
<path d="M312.229 84.0503L303.854 91.1424" stroke="#E2DFC0" stroke-width="8" stroke-miterlimit="10" stroke-linecap="round" stroke-linejoin="round"/>
<path d="M330.864 68.4326L319.773 77.7127" stroke="#E2DFC0" stroke-width="8" stroke-miterlimit="10" stroke-linecap="round" stroke-linejoin="round"/>
<path d="M281.974 81.3342L275.184 89.4072" stroke="#E2DFC0" stroke-width="8" stroke-miterlimit="10" stroke-linecap="round" stroke-linejoin="round"/>
<path d="M294.574 66.3201L287.482 74.7702" stroke="#E2DFC0" stroke-width="8" stroke-miterlimit="10" stroke-linecap="round" stroke-linejoin="round"/>
<path d="M310.192 47.76L300.912 58.8509" stroke="#E2DFC0" stroke-width="8" stroke-miterlimit="10" stroke-linecap="round" stroke-linejoin="round"/>
<path d="M264.319 68.9609L259.038 78.0901" stroke="#E2DFC0" stroke-width="8" stroke-miterlimit="10" stroke-linecap="round" stroke-linejoin="round"/>
<path d="M274.052 51.9851L268.544 61.567" stroke="#E2DFC0" stroke-width="8" stroke-miterlimit="10" stroke-linecap="round" stroke-linejoin="round"/>
<path d="M286.199 31.0103L278.956 43.5346" stroke="#E2DFC0" stroke-width="8" stroke-miterlimit="10" stroke-linecap="round" stroke-linejoin="round"/>
<path d="M244.703 59.8315L241.081 69.7152" stroke="#E2DFC0" stroke-width="8" stroke-miterlimit="10" stroke-linecap="round" stroke-linejoin="round"/>
<path d="M251.418 41.4224L247.645 51.7587" stroke="#E2DFC0" stroke-width="8" stroke-miterlimit="10" stroke-linecap="round" stroke-linejoin="round"/>
<path d="M259.717 18.637L254.737 32.2176" stroke="#E2DFC0" stroke-width="8" stroke-miterlimit="10" stroke-linecap="round" stroke-linejoin="round"/>
<path d="M223.879 54.2483L221.993 64.5847" stroke="#E2DFC0" stroke-width="8" stroke-miterlimit="10" stroke-linecap="round" stroke-linejoin="round"/>
<path d="M227.274 34.9336L225.313 45.7981" stroke="#E2DFC0" stroke-width="8" stroke-miterlimit="10" stroke-linecap="round" stroke-linejoin="round"/>
<path d="M231.499 11.092L228.934 25.2763" stroke="#E2DFC0" stroke-width="8" stroke-miterlimit="10" stroke-linecap="round" stroke-linejoin="round"/>
<path d="M116.29 448.389H11.1156" stroke="#605B31" stroke-width="8" stroke-miterlimit="10" stroke-linecap="round" stroke-linejoin="round"/>
<path d="M280.012 448.389H129.494" stroke="#605B31" stroke-width="8" stroke-miterlimit="10" stroke-linecap="round" stroke-linejoin="round"/>
<path d="M552.38 448.389H538.724" stroke="#605B31" stroke-width="8" stroke-miterlimit="10" stroke-linecap="round" stroke-linejoin="round"/>
<path d="M630.846 448.389H565.508" stroke="#605B31" stroke-width="8" stroke-miterlimit="10" stroke-linecap="round" stroke-linejoin="round"/>
<path d="M647.067 448.389H642.163" stroke="#605B31" stroke-width="8" stroke-miterlimit="10" stroke-linecap="round" stroke-linejoin="round"/>
<path d="M77.2837 320.052L225.237 119.209L307.928 182.812" stroke="#E2DFC0" stroke-width="8" stroke-miterlimit="10" stroke-linecap="round" stroke-linejoin="round"/>
<path d="M270.129 234.116L375.832 90.6143L555.247 253.582" stroke="#E2DFC0" stroke-width="8" stroke-miterlimit="10" stroke-linecap="round" stroke-linejoin="round"/>
<path d="M41.2701 362.144C47.1644 357.642 50.3434 351.898 48.3706 349.315C46.3977 346.732 40.0201 348.288 34.1258 352.79C28.2315 357.292 25.0525 363.036 27.0253 365.619C28.9982 368.202 35.3758 366.646 41.2701 362.144Z" fill="#FFFBF1"/>
<path d="M41.237 338.238C47.1313 333.736 50.3103 327.993 48.3374 325.41C46.3646 322.827 39.987 324.383 34.0927 328.885C28.1983 333.387 25.0193 339.13 26.9922 341.713C28.965 344.296 35.3426 342.74 41.237 338.238Z" fill="#FFFBF1"/>
<path d="M41.2596 420.167C47.1539 415.664 50.3329 409.921 48.36 407.338C46.3872 404.755 40.0095 406.311 34.1152 410.813C28.2209 415.315 25.0419 421.059 27.0148 423.642C28.9876 426.225 35.3652 424.669 41.2596 420.167Z" fill="#FFFBF1"/>
<path d="M41.2698 390.361C47.1641 385.859 50.343 380.116 48.3702 377.533C46.3973 374.95 40.0197 376.506 34.1254 381.008C28.2311 385.51 25.0521 391.254 27.0249 393.836C28.9978 396.419 35.3754 394.864 41.2698 390.361Z" fill="#FFFBF1"/>
<path d="M41.2701 362.144C47.1644 357.642 50.3434 351.898 48.3706 349.315C46.3977 346.732 40.0201 348.288 34.1258 352.79C28.2315 357.292 25.0525 363.036 27.0253 365.619C28.9982 368.202 35.3758 366.646 41.2701 362.144Z" stroke="#605B31" stroke-width="8" stroke-miterlimit="10" stroke-linecap="round" stroke-linejoin="round"/>
<path d="M41.237 338.238C47.1313 333.736 50.3103 327.993 48.3374 325.41C46.3646 322.827 39.987 324.383 34.0927 328.885C28.1983 333.387 25.0193 339.13 26.9922 341.713C28.965 344.296 35.3426 342.74 41.237 338.238Z" stroke="#605B31" stroke-width="8" stroke-miterlimit="10" stroke-linecap="round" stroke-linejoin="round"/>
<path d="M41.2596 420.167C47.1539 415.664 50.3329 409.921 48.36 407.338C46.3872 404.755 40.0095 406.311 34.1152 410.813C28.2209 415.315 25.0419 421.059 27.0148 423.642C28.9876 426.225 35.3652 424.669 41.2596 420.167Z" stroke="#605B31" stroke-width="8" stroke-miterlimit="10" stroke-linecap="round" stroke-linejoin="round"/>
<path d="M41.2698 390.361C47.1641 385.859 50.343 380.116 48.3702 377.533C46.3973 374.95 40.0197 376.506 34.1254 381.008C28.2311 385.51 25.0521 391.254 27.0249 393.836C28.9978 396.419 35.3754 394.864 41.2698 390.361Z" stroke="#605B31" stroke-width="8" stroke-miterlimit="10" stroke-linecap="round" stroke-linejoin="round"/>
<path d="M26.9538 341.809C28.9267 339.226 25.7477 333.483 19.8533 328.98C13.959 324.478 7.58142 322.922 5.60857 325.505C3.63572 328.088 6.8147 333.832 12.709 338.334C18.6034 342.836 24.981 344.392 26.9538 341.809Z" fill="#FFFBF1"/>
<path d="M26.9174 411.693C28.8902 409.11 25.7113 403.366 19.8169 398.864C13.9226 394.362 7.54502 392.806 5.57216 395.389C3.59931 397.972 6.77829 403.716 12.6726 408.218C18.5669 412.72 24.9445 414.276 26.9174 411.693Z" fill="#FFFBF1"/>
<path d="M26.935 381.806C28.9078 379.223 25.7288 373.48 19.8345 368.978C13.9402 364.475 7.56256 362.92 5.58971 365.502C3.61686 368.085 6.79584 373.829 12.6902 378.331C18.5845 382.833 24.9621 384.389 26.935 381.806Z" fill="#FFFBF1"/>
<path d="M26.9538 341.809C28.9267 339.226 25.7477 333.483 19.8533 328.98C13.959 324.478 7.58142 322.922 5.60857 325.505C3.63572 328.088 6.8147 333.832 12.709 338.334C18.6034 342.836 24.981 344.392 26.9538 341.809Z" stroke="#605B31" stroke-width="8" stroke-miterlimit="10" stroke-linecap="round" stroke-linejoin="round"/>
<path d="M26.9174 411.693C28.8902 409.11 25.7113 403.366 19.8169 398.864C13.9226 394.362 7.54502 392.806 5.57216 395.389C3.59931 397.972 6.77829 403.716 12.6726 408.218C18.5669 412.72 24.9445 414.276 26.9174 411.693Z" stroke="#605B31" stroke-width="8" stroke-miterlimit="10" stroke-linecap="round" stroke-linejoin="round"/>
<path d="M26.935 381.806C28.9078 379.223 25.7288 373.48 19.8345 368.978C13.9402 364.475 7.56256 362.92 5.58971 365.502C3.61686 368.085 6.79584 373.829 12.6902 378.331C18.5845 382.833 24.9621 384.389 26.935 381.806Z" stroke="#605B31" stroke-width="8" stroke-miterlimit="10" stroke-linecap="round" stroke-linejoin="round"/>
<path d="M26.9598 337.33V446.956" stroke="#605B31" stroke-width="8" stroke-miterlimit="10" stroke-linecap="round" stroke-linejoin="round"/>
<path d="M103.897 425.963C109.792 421.461 112.971 415.718 110.998 413.135C109.025 410.552 102.647 412.108 96.7529 416.61C90.8586 421.112 87.6796 426.856 89.6525 429.438C91.6253 432.021 98.0029 430.466 103.897 425.963Z" stroke="#605B31" stroke-width="8" stroke-miterlimit="10" stroke-linecap="round" stroke-linejoin="round"/>
<path d="M103.897 400.915C109.792 396.413 112.971 390.669 110.998 388.086C109.025 385.503 102.647 387.059 96.7529 391.561C90.8586 396.063 87.6796 401.807 89.6524 404.39C91.6253 406.973 98.0029 405.417 103.897 400.915Z" stroke="#605B31" stroke-width="8" stroke-miterlimit="10" stroke-linecap="round" stroke-linejoin="round"/>
<path d="M103.88 378.286C109.775 373.784 112.954 368.04 110.981 365.457C109.008 362.874 102.63 364.43 96.7359 368.932C90.8416 373.435 87.6626 379.178 89.6355 381.761C91.6083 384.344 97.986 382.788 103.88 378.286Z" stroke="#605B31" stroke-width="8" stroke-miterlimit="10" stroke-linecap="round" stroke-linejoin="round"/>
<path d="M89.5368 411.687C91.5097 409.104 88.3307 403.36 82.4364 398.858C76.5421 394.356 70.1645 392.8 68.1916 395.383C66.2188 397.966 69.3977 403.71 75.2921 408.212C81.1864 412.714 87.564 414.27 89.5368 411.687Z" stroke="#605B31" stroke-width="8" stroke-miterlimit="10" stroke-linecap="round" stroke-linejoin="round"/>
<path d="M89.5544 381.8C91.5273 379.217 88.3483 373.474 82.4539 368.972C76.5596 364.47 70.182 362.914 68.2092 365.497C66.2363 368.079 69.4153 373.823 75.3096 378.325C81.2039 382.827 87.5816 384.383 89.5544 381.8Z" stroke="#605B31" stroke-width="8" stroke-miterlimit="10" stroke-linecap="round" stroke-linejoin="round"/>
<path d="M89.5817 378.675V446.955" stroke="#605B31" stroke-width="8" stroke-miterlimit="10" stroke-linecap="round" stroke-linejoin="round"/>
<path d="M177.403 184.472L184.797 193.978L202.678 186.886L225.841 195.789L235.423 186.886L253.53 192.846L263.338 177.908L286.35 187.112L295.404 173.155" stroke="#E2DFC0" stroke-width="8" stroke-miterlimit="10" stroke-linecap="round" stroke-linejoin="round"/>
<path d="M329.054 154.066L351.99 148.785L360.365 164.252L384.131 151.426L401.484 162.366L412.726 145.767L441.848 150.596" stroke="#E2DFC0" stroke-width="8" stroke-miterlimit="10" stroke-linecap="round" stroke-linejoin="round"/>
<path d="M425.476 97.631H532.914C533.518 96.1975 533.895 94.5377 533.895 92.8778C533.895 86.1629 528.387 80.6552 521.672 80.6552C520.314 80.6552 519.032 80.8816 517.9 81.2588C515.109 73.6386 507.715 68.2063 499.114 68.2063C496.85 68.2063 494.662 68.5835 492.625 69.2626C488.324 59.7561 478.667 53.1167 467.576 53.1167C452.336 53.1167 440.038 65.4147 440.038 80.6552C440.038 82.1642 440.189 83.6731 440.415 85.1821C433.474 86.4647 427.891 91.2179 425.476 97.631Z" stroke="#E2DFC0" stroke-width="8" stroke-miterlimit="10" stroke-linecap="round" stroke-linejoin="round"/>
<path d="M611.908 146.748C611.908 146.672 611.908 146.597 611.908 146.521C611.908 139.278 606.023 133.469 598.856 133.469C597.498 133.469 596.215 133.695 595.008 134.072C595.008 133.695 595.008 133.318 595.008 132.941C595.008 121.472 585.728 112.192 574.26 112.192C562.792 112.192 553.512 121.472 553.512 132.941C553.512 134.148 553.587 135.279 553.813 136.411C553.738 136.411 553.587 136.411 553.512 136.411C547.928 136.411 543.326 140.938 543.326 146.597C543.326 146.672 543.326 146.748 543.326 146.898H611.908V146.748Z" stroke="#E2DFC0" stroke-width="8" stroke-miterlimit="10" stroke-linecap="round" stroke-linejoin="round"/>
<path d="M211.657 448.389C192.568 448.389 177.026 432.847 177.026 413.758C177.026 394.67 192.568 379.128 211.657 379.128C230.745 379.128 246.287 394.67 246.287 413.758C246.287 432.847 230.745 448.389 211.657 448.389Z" fill="#C9CD18"/>
<path d="M211.657 448.389C192.568 448.389 177.026 432.847 177.026 413.758C177.026 394.67 192.568 379.128 211.657 379.128C230.745 379.128 246.287 394.67 246.287 413.758C246.287 432.847 230.745 448.389 211.657 448.389Z" stroke="#605B31" stroke-width="8" stroke-miterlimit="10" stroke-linecap="round" stroke-linejoin="round"/>
<path d="M211.657 431.866C201.697 431.866 193.549 423.717 193.549 413.758C193.549 403.799 201.697 395.651 211.657 395.651C221.616 395.651 229.764 403.799 229.764 413.758C229.764 423.717 221.616 431.866 211.657 431.866Z" fill="#FFFBF1"/>
<path d="M211.657 431.866C201.697 431.866 193.549 423.717 193.549 413.758C193.549 403.799 201.697 395.651 211.657 395.651C221.616 395.651 229.764 403.799 229.764 413.758C229.764 423.717 221.616 431.866 211.657 431.866Z" stroke="#605B31" stroke-width="8" stroke-miterlimit="10" stroke-linecap="round" stroke-linejoin="round"/>
<path d="M211.657 419.719C208.337 419.719 205.696 417.003 205.696 413.758C205.696 410.439 208.412 407.798 211.657 407.798C214.976 407.798 217.617 410.514 217.617 413.758C217.617 417.003 214.976 419.719 211.657 419.719Z" fill="#FFFBF1"/>
<path d="M211.657 419.719C208.337 419.719 205.696 417.003 205.696 413.758C205.696 410.439 208.412 407.798 211.657 407.798C214.976 407.798 217.617 410.514 217.617 413.758C217.617 417.003 214.976 419.719 211.657 419.719Z" stroke="#605B31" stroke-width="8" stroke-miterlimit="10" stroke-linecap="round" stroke-linejoin="round"/>
<path d="M488.551 308.357L481.459 281.422C478.667 270.633 469.462 262.787 458.372 261.579C426.683 258.184 388.28 256.223 343.464 256.223C292.16 256.223 213.316 260.146 189.626 262.862C185.325 263.315 181.628 266.106 179.893 270.105L165.633 303.453C159.069 315.223 155.071 328.2 153.939 341.63L153.637 416.625L169.557 416.927C169.481 415.871 169.406 414.814 169.406 413.758C169.406 390.445 188.268 371.583 211.581 371.583C234.895 371.583 253.757 390.445 253.757 413.758C253.757 415.116 253.681 416.474 253.53 417.757L364.439 419.115C364.212 417.38 364.062 415.569 364.062 413.758C364.062 390.445 382.924 371.583 406.237 371.583C429.55 371.583 448.412 390.445 448.412 413.758C448.412 415.871 448.262 417.908 447.96 419.945L492.701 420.398V342.233C492.927 330.841 491.418 319.448 488.551 308.357Z" fill="#FFEA2C"/>
<g opacity="0.36">
<path d="M162.087 416.625L162.389 341.63C163.521 328.2 167.519 315.223 174.083 303.453L188.343 270.105C190.078 266.106 193.775 263.39 198.076 262.862C221.088 260.221 296.007 256.449 347.312 256.223C346.029 256.223 344.747 256.223 343.464 256.223C292.16 256.223 213.316 260.146 189.626 262.862C185.325 263.315 181.628 266.106 179.893 270.105L165.633 303.453C159.069 315.223 155.071 328.2 153.939 341.63L153.637 416.625L169.557 416.927C169.557 416.852 169.557 416.852 169.557 416.776L162.087 416.625Z" fill="#FFEA2C"/>
<path d="M456.561 419.945C456.863 417.908 457.013 415.871 457.013 413.758C457.013 390.445 438.151 371.583 414.838 371.583C413.405 371.583 412.046 371.658 410.613 371.809C431.965 373.922 448.563 391.879 448.563 413.758C448.563 415.871 448.412 417.908 448.111 419.945L492.851 420.398V420.322L456.561 419.945Z" fill="#FFEA2C"/>
<path d="M262.056 417.682C262.207 416.399 262.282 415.041 262.282 413.683C262.282 390.37 243.42 371.508 220.107 371.508C218.673 371.508 217.315 371.583 215.882 371.734C237.233 373.846 253.832 391.803 253.832 413.683C253.832 415.041 253.757 416.399 253.606 417.682L364.514 419.04V418.964L262.056 417.682Z" fill="#FFEA2C"/>
</g>
<path opacity="0.36" d="M262.207 410.891H363.005V400.857H260.245C261.301 404.101 261.905 407.421 262.207 410.891Z" fill="#FFEA2C"/>
<g opacity="0.25">
<path d="M490.06 307.603L482.968 280.668C480.176 269.879 470.971 262.032 459.881 260.825C428.192 257.43 389.789 255.468 344.973 255.468C293.669 255.468 214.825 259.392 191.135 262.108C187.438 262.56 184.118 264.673 182.232 267.842C182.232 267.842 182.232 266.559 182.307 266.559C205.998 263.843 284.841 261.202 336.146 261.202C381.037 261.202 419.365 263.164 451.053 266.559C462.144 267.766 471.273 275.613 474.14 286.402L481.232 313.337C484.175 324.428 485.608 335.82 485.608 347.213V419.568L494.511 419.643V341.479C494.436 330.086 492.927 318.694 490.06 307.603Z" fill="#FFEA2C"/>
</g>
<path d="M488.551 308.357L481.459 281.422C478.667 270.633 469.462 262.787 458.372 261.579C426.683 258.184 388.28 256.223 343.464 256.223C292.16 256.223 213.316 260.146 189.626 262.862C185.325 263.315 181.628 266.106 179.893 270.105L165.633 303.453C159.069 315.223 155.071 328.2 153.939 341.63L153.637 416.625L169.557 416.927C169.481 415.871 169.406 414.814 169.406 413.758C169.406 390.445 188.268 371.583 211.581 371.583C234.895 371.583 253.757 390.445 253.757 413.758C253.757 415.116 253.681 416.474 253.53 417.757L364.439 419.115C364.212 417.38 364.062 415.569 364.062 413.758C364.062 390.445 382.924 371.583 406.237 371.583C429.55 371.583 448.412 390.445 448.412 413.758C448.412 415.871 448.262 417.908 447.96 419.945L492.7 420.398V342.233C492.927 330.841 491.418 319.448 488.551 308.357Z" stroke="#605B31" stroke-width="8" stroke-miterlimit="10" stroke-linecap="round" stroke-linejoin="round"/>
<path d="M406.388 448.389C387.3 448.389 371.757 432.847 371.757 413.758C371.757 394.67 387.3 379.128 406.388 379.128C425.476 379.128 441.019 394.67 441.019 413.758C441.019 432.847 425.476 448.389 406.388 448.389Z" fill="#C9CD18"/>
<path d="M406.388 448.389C387.3 448.389 371.757 432.847 371.757 413.758C371.757 394.67 387.3 379.128 406.388 379.128C425.476 379.128 441.019 394.67 441.019 413.758C441.019 432.847 425.476 448.389 406.388 448.389Z" stroke="#605B31" stroke-width="8" stroke-miterlimit="10" stroke-linecap="round" stroke-linejoin="round"/>
<path d="M406.388 431.866C396.429 431.866 388.28 423.717 388.28 413.758C388.28 403.799 396.429 395.651 406.388 395.651C416.347 395.651 424.495 403.799 424.495 413.758C424.495 423.717 416.347 431.866 406.388 431.866Z" fill="#FFFBF1"/>
<path d="M406.388 431.866C396.429 431.866 388.28 423.717 388.28 413.758C388.28 403.799 396.429 395.651 406.388 395.651C416.347 395.651 424.495 403.799 424.495 413.758C424.495 423.717 416.347 431.866 406.388 431.866Z" stroke="#605B31" stroke-width="8" stroke-miterlimit="10" stroke-linecap="round" stroke-linejoin="round"/>
<path d="M406.388 419.719C403.068 419.719 400.427 417.003 400.427 413.758C400.427 410.439 403.144 407.798 406.388 407.798C409.708 407.798 412.348 410.514 412.348 413.758C412.348 417.003 409.708 419.719 406.388 419.719Z" fill="#FFFBF1"/>
<path d="M406.388 419.719C403.068 419.719 400.427 417.003 400.427 413.758C400.427 410.439 403.144 407.798 406.388 407.798C409.708 407.798 412.348 410.514 412.348 413.758C412.348 417.003 409.708 419.719 406.388 419.719Z" stroke="#605B31" stroke-width="8" stroke-miterlimit="10" stroke-linecap="round" stroke-linejoin="round"/>
<path d="M153.637 423.34H145.413C142.018 423.34 139.302 420.624 139.302 417.229V392.859C139.302 389.464 142.018 386.748 145.413 386.748H153.637V423.34Z" fill="white"/>
<path d="M153.637 423.34H145.413C142.018 423.34 139.302 420.624 139.302 417.229V392.859C139.302 389.464 142.018 386.748 145.413 386.748H153.637V423.34Z" stroke="#605B31" stroke-width="8" stroke-miterlimit="10" stroke-linecap="round" stroke-linejoin="round"/>
<path d="M154.844 376.94H151.826C149.563 376.94 147.752 375.129 147.752 372.866V354.154C147.752 351.891 149.563 350.08 151.826 350.08H154.844C157.108 350.08 158.918 351.891 158.918 354.154V372.866C158.918 375.129 157.108 376.94 154.844 376.94Z" fill="white"/>
<path d="M154.844 376.94H151.826C149.563 376.94 147.752 375.129 147.752 372.866V354.154C147.752 351.891 149.563 350.08 151.826 350.08H154.844C157.108 350.08 158.918 351.891 158.918 354.154V372.866C158.918 375.129 157.108 376.94 154.844 376.94Z" stroke="#605B31" stroke-width="8" stroke-miterlimit="10" stroke-linecap="round" stroke-linejoin="round"/>
<path d="M498.661 429.15H466.218C462.446 429.15 459.428 426.132 459.428 422.36V417.078C459.428 413.306 462.446 410.288 466.218 410.288H498.661C502.433 410.288 505.451 413.306 505.451 417.078V422.36C505.451 426.056 502.358 429.15 498.661 429.15Z" fill="white"/>
<path d="M466.671 421.831C466.671 419.945 468.255 418.361 470.141 418.361H505.376V417.078C505.376 413.306 502.358 410.288 498.585 410.288H466.143C462.37 410.288 459.352 413.306 459.352 417.078V422.36C459.352 426.132 462.37 429.15 466.143 429.15H466.671V421.831Z" fill="#D8D8D8"/>
<path d="M498.661 429.15H466.218C462.446 429.15 459.428 426.132 459.428 422.36V417.078C459.428 413.306 462.446 410.288 466.218 410.288H498.661C502.433 410.288 505.451 413.306 505.451 417.078V422.36C505.451 426.056 502.358 429.15 498.661 429.15Z" stroke="#605B31" stroke-width="8" stroke-miterlimit="10" stroke-linecap="round" stroke-linejoin="round"/>
<path d="M443.735 325.861H408.802C404.803 325.861 401.559 322.617 401.559 318.618V283.384C401.559 279.385 404.803 276.141 408.802 276.141H430.003C438.378 276.141 445.47 282.252 446.753 290.552L450.827 317.487C451.581 321.938 448.186 325.861 443.735 325.861Z" fill="#FFFBF1"/>
<path opacity="0.56" d="M416.347 292.061C416.347 288.062 419.591 284.818 423.59 284.818H444.791C441.848 279.612 436.265 276.217 430.003 276.217H408.802C404.803 276.217 401.559 279.461 401.559 283.46V318.694C401.559 322.693 404.803 325.937 408.802 325.937H416.347V292.061Z" fill="#FFFBF1"/>
<path d="M443.735 325.861H408.802C404.803 325.861 401.559 322.617 401.559 318.618V283.384C401.559 279.385 404.803 276.141 408.802 276.141H430.003C438.378 276.141 445.47 282.252 446.753 290.552L450.827 317.487C451.581 321.938 448.186 325.861 443.735 325.861Z" stroke="#605B31" stroke-width="8" stroke-miterlimit="10" stroke-linecap="round" stroke-linejoin="round"/>
<path d="M378.321 325.107H301.213C297.215 325.107 293.97 321.862 293.97 317.864V282.629C293.97 278.631 297.215 275.386 301.213 275.386H378.321C382.32 275.386 385.564 278.631 385.564 282.629V317.864C385.489 321.862 382.32 325.107 378.321 325.107Z" fill="#FFFBF1"/>
<path opacity="0.56" d="M307.928 290.401C307.928 286.402 311.172 283.158 315.171 283.158H385.489V282.629C385.489 278.631 382.245 275.386 378.246 275.386H301.213C297.215 275.386 293.97 278.631 293.97 282.629V317.864C293.97 321.862 297.215 325.107 301.213 325.107H308.004V290.401H307.928Z" fill="#FFFBF1"/>
<path d="M378.321 325.107H301.213C297.215 325.107 293.97 321.862 293.97 317.864V282.629C293.97 278.631 297.215 275.386 301.213 275.386H378.321C382.32 275.386 385.564 278.631 385.564 282.629V317.864C385.489 321.862 382.32 325.107 378.321 325.107Z" stroke="#605B31" stroke-width="8" stroke-miterlimit="10" stroke-linecap="round" stroke-linejoin="round"/>
<path d="M258.887 325.861H186.231C182.156 325.861 179.214 321.334 180.346 316.732L188.72 281.498C189.475 278.405 191.889 276.217 194.605 276.217H258.887C262.282 276.217 264.998 279.461 264.998 283.46V318.694C265.074 322.617 262.282 325.861 258.887 325.861Z" fill="#FFFBF1"/>
<path opacity="0.56" d="M193.926 324.126L202.301 288.892C203.055 285.798 205.47 283.61 208.186 283.61H264.998V283.384C264.998 279.385 262.282 276.141 258.887 276.141H194.605C191.889 276.141 189.475 278.329 188.72 281.422L180.346 316.657C179.289 321.259 182.156 325.786 186.231 325.786H193.7C193.775 325.258 193.851 324.73 193.926 324.126Z" fill="#FFFBF1"/>
<path d="M258.887 325.861H186.231C182.156 325.861 179.214 321.334 180.346 316.732L188.72 281.498C189.475 278.405 191.889 276.217 194.605 276.217H258.887C262.282 276.217 264.998 279.461 264.998 283.46V318.694C265.074 322.617 262.282 325.861 258.887 325.861Z" stroke="#605B31" stroke-width="8" stroke-miterlimit="10" stroke-linecap="round" stroke-linejoin="round"/>
<path opacity="0.48" d="M266.356 259.769C274.957 259.769 281.899 266.71 281.899 275.311V418.059" stroke="#605B31" stroke-width="2" stroke-miterlimit="10" stroke-linecap="round" stroke-linejoin="round"/>
<path d="M246.287 343.969H268.922" stroke="#605B31" stroke-width="8" stroke-miterlimit="10" stroke-linecap="round" stroke-linejoin="round"/>
<path d="M363.76 342.234H383.074" stroke="#605B31" stroke-width="8" stroke-miterlimit="10" stroke-linecap="round" stroke-linejoin="round"/>
<path d="M494.888 394.67H491.946V322.617H494.888C499.868 322.617 503.942 326.691 503.942 331.671V385.616C503.942 390.596 499.868 394.67 494.888 394.67Z" fill="#D8D8D8"/>
<path d="M494.888 394.67H491.946V322.617H494.888C499.868 322.617 503.942 326.691 503.942 331.671V385.616C503.942 390.596 499.868 394.67 494.888 394.67Z" stroke="#605B31" stroke-width="8" stroke-miterlimit="10" stroke-linecap="round" stroke-linejoin="round"/>
<path d="M459.428 283.761H468.557" stroke="#605B31" stroke-width="8" stroke-miterlimit="10" stroke-linecap="round" stroke-linejoin="round"/>
<path d="M463.2 296.738H472.329" stroke="#605B31" stroke-width="8" stroke-miterlimit="10" stroke-linecap="round" stroke-linejoin="round"/>
<path d="M466.746 309.64H475.876" stroke="#605B31" stroke-width="8" stroke-miterlimit="10" stroke-linecap="round" stroke-linejoin="round"/>
<path d="M468.255 322.617H477.46" stroke="#605B31" stroke-width="8" stroke-miterlimit="10" stroke-linecap="round" stroke-linejoin="round"/>
<path d="M357.95 422.737H260.396C256.322 422.737 253.077 419.493 253.077 415.418C253.077 411.344 256.322 408.1 260.396 408.1H357.95C362.024 408.1 365.269 411.344 365.269 415.418C365.269 419.417 362.024 422.737 357.95 422.737Z" fill="white"/>
<path d="M357.95 422.737H260.396C256.322 422.737 253.077 419.493 253.077 415.418C253.077 411.344 256.322 408.1 260.396 408.1H357.95C362.024 408.1 365.269 411.344 365.269 415.418C365.269 419.417 362.024 422.737 357.95 422.737Z" fill="white"/>
<path d="M365.269 408.1H253.077V415.418H365.269V408.1Z" fill="#D8D8D8"/>
<path d="M357.95 422.737H260.396C256.322 422.737 253.077 419.493 253.077 415.418C253.077 411.344 256.322 408.1 260.396 408.1H357.95C362.024 408.1 365.269 411.344 365.269 415.418C365.269 419.417 362.024 422.737 357.95 422.737Z" stroke="#605B31" stroke-width="8" stroke-miterlimit="10" stroke-linecap="round" stroke-linejoin="round"/>
<path d="M200.566 307.15L215.353 292.287" stroke="#605B31" stroke-width="4" stroke-miterlimit="10" stroke-linecap="round" stroke-linejoin="round"/>
<path d="M213.09 308.508L233.008 288.439" stroke="#605B31" stroke-width="4" stroke-miterlimit="10" stroke-linecap="round" stroke-linejoin="round"/>
<path d="M315.473 305.415L330.185 290.477" stroke="#605B31" stroke-width="4" stroke-miterlimit="10" stroke-linecap="round" stroke-linejoin="round"/>
<path d="M327.997 306.773L347.916 286.704" stroke="#605B31" stroke-width="4" stroke-miterlimit="10" stroke-linecap="round" stroke-linejoin="round"/>
<path d="M411.141 306.848L423.288 294.55" stroke="#605B31" stroke-width="4" stroke-miterlimit="10" stroke-linecap="round" stroke-linejoin="round"/>
<path d="M421.478 307.98L437.85 291.382" stroke="#605B31" stroke-width="4" stroke-miterlimit="10" stroke-linecap="round" stroke-linejoin="round"/>
<path d="M535.178 346.685L597.498 199.109C598.856 195.94 603.383 195.94 604.741 199.109L667.061 346.685C674.53 364.34 658.611 382.825 635.976 382.825H566.262C543.628 382.825 527.708 364.34 535.178 346.685Z" fill="#FFFBF1"/>
<path d="M535.178 346.685L597.498 199.109C598.856 195.94 603.383 195.94 604.741 199.109L667.061 346.685C674.53 364.34 658.611 382.825 635.976 382.825H566.262C543.628 382.825 527.708 364.34 535.178 346.685Z" fill="#FFFBF1"/>
<path opacity="0.56" d="M565.659 353.626L610.098 211.708L604.817 199.109C603.459 195.94 598.932 195.94 597.574 199.109L535.254 346.685C527.784 364.34 543.704 382.825 566.338 382.825H571.62C564.98 377.241 562.415 367.961 565.659 353.626Z" fill="#FFFBF1"/>
<path d="M601.119 448.389V226.27" stroke="#605B31" stroke-width="8" stroke-miterlimit="10" stroke-linecap="round" stroke-linejoin="round"/>
<path d="M619.076 257.204L601.119 274.33L583.238 257.204" stroke="#605B31" stroke-width="8" stroke-miterlimit="10" stroke-linecap="round" stroke-linejoin="round"/>
<path d="M622.471 289.797L601.119 310.244L579.768 289.797" stroke="#605B31" stroke-width="8" stroke-miterlimit="10" stroke-linecap="round" stroke-linejoin="round"/>
<path d="M636.731 326.917L601.119 355.21L565.508 326.917" stroke="#605B31" stroke-width="8" stroke-miterlimit="10" stroke-linecap="round" stroke-linejoin="round"/>
<path d="M401.107 4L392.053 13.0538L382.999 4" stroke="#E2DFC0" stroke-width="8" stroke-miterlimit="10" stroke-linecap="round" stroke-linejoin="round"/>
<path d="M468.482 15.77L459.428 24.8238L450.299 15.77" stroke="#E2DFC0" stroke-width="8" stroke-miterlimit="10" stroke-linecap="round" stroke-linejoin="round"/>
<path d="M611.984 64.4338L602.855 73.4876L593.801 64.4338" stroke="#E2DFC0" stroke-width="8" stroke-miterlimit="10" stroke-linecap="round" stroke-linejoin="round"/>
<path d="M524.087 448.389H314.341" stroke="#605B31" stroke-width="8" stroke-miterlimit="10" stroke-linecap="round" stroke-linejoin="round"/>
<path d="M317.133 448.389H291.707" stroke="#605B31" stroke-width="8" stroke-miterlimit="10" stroke-linecap="round" stroke-linejoin="round"/>
</svg>
